<?xml version="1.0" standalone="no"?>
<!DOCTYPE svg PUBLIC "-//W3C//DTD SVG 20010904//EN"
 "http://www.w3.org/TR/2001/REC-SVG-20010904/DTD/svg10.dtd">
<svg version="1.0" xmlns="http://www.w3.org/2000/svg"
 width="2079.000000pt" height="1799.000000pt" viewBox="0 0 2079.000000 1799.000000"
 preserveAspectRatio="xMidYMid meet">
<metadata>
Created by potrace 1.16, written by Peter Selinger 2001-2019
</metadata>
<g transform="translate(0.000000,1799.000000) scale(0.100000,-0.100000)"
fill="#000000" stroke="none">
<path d="M0 13494 l0 -4496 65 -108 c36 -59 65 -113 65 -119 0 -6 5 -11 10
-11 6 0 10 -4 10 -10 0 -5 36 -70 80 -145 44 -75 80 -140 80 -145 0 -6 5 -10
10 -10 6 0 10 -4 10 -10 0 -5 32 -65 71 -132 102 -175 109 -188 137 -238 14
-25 42 -72 62 -105 20 -33 48 -80 62 -105 14 -25 35 -63 48 -85 12 -22 46 -81
76 -132 30 -51 54 -94 54 -97 0 -3 41 -72 90 -154 50 -83 90 -152 90 -154 0
-3 36 -65 80 -139 44 -74 80 -140 80 -146 0 -7 4 -13 9 -13 5 0 11 -8 14 -17
4 -10 18 -38 33 -63 105 -177 124 -212 124 -220 0 -6 4 -10 9 -10 5 0 11 -8
15 -17 3 -10 13 -32 23 -48 10 -17 39 -66 65 -110 25 -44 58 -100 73 -125 14
-25 28 -53 32 -62 3 -10 9 -18 14 -18 5 0 9 -5 9 -11 0 -6 29 -60 65 -119 36
-59 65 -110 65 -113 0 -3 41 -73 90 -155 50 -83 90 -152 90 -155 0 -3 36 -66
80 -141 44 -74 80 -140 80 -145 0 -6 5 -11 10 -11 6 0 10 -4 10 -10 0 -5 36
-70 80 -145 44 -75 80 -140 80 -145 0 -6 4 -10 9 -10 5 0 11 -8 15 -18 3 -9
13 -30 23 -47 10 -16 43 -73 73 -125 30 -52 63 -108 73 -125 10 -16 20 -38 23
-48 4 -9 10 -17 15 -17 5 0 9 -5 9 -11 0 -14 100 -181 114 -191 7 -5 7 -8 1
-8 -5 0 -594 0 -1308 0 l-1297 0 2 -2247 3 -2248 2596 -3 2597 -2 56 94 c31
52 56 99 56 105 0 6 5 11 10 11 6 0 10 4 10 9 0 8 58 110 164 291 15 25 29 53
33 63 3 9 9 17 14 17 5 0 9 4 9 10 0 5 22 47 49 92 27 46 58 99 69 119 42 76
47 84 52 89 3 3 12 19 21 35 8 17 42 75 74 130 32 55 72 125 88 155 17 30 61
106 99 169 37 62 68 116 68 118 0 3 29 54 65 113 36 59 65 112 65 118 0 6 3
12 7 14 5 2 19 23 32 48 13 25 46 82 72 126 27 45 49 87 49 93 0 6 4 11 9 11
5 0 11 8 15 18 3 9 14 31 23 47 88 146 146 247 201 345 14 25 53 93 88 153 35
59 64 112 64 117 0 6 5 10 10 10 6 0 10 5 10 11 0 5 36 71 80 145 44 74 80
138 80 144 0 5 5 10 10 10 6 0 10 5 10 11 0 5 24 51 54 102 30 51 63 109 75
129 12 21 30 55 42 75 12 21 43 75 70 119 27 45 49 87 49 93 0 6 4 11 9 11 5
0 11 8 14 17 4 10 18 38 33 63 14 25 48 83 76 130 27 47 56 96 64 110 9 14 18
33 21 43 3 9 9 17 14 17 5 0 9 4 9 10 0 8 19 43 124 220 15 25 29 53 33 63 3
9 9 17 14 17 5 0 9 5 9 11 0 6 27 56 60 111 33 54 60 101 60 103 0 2 27 49 60
103 33 55 60 105 60 111 0 6 5 11 10 11 6 0 10 4 10 9 0 8 58 110 164 291 15
25 29 53 33 63 3 9 9 17 14 17 5 0 9 4 9 10 0 5 22 47 49 92 27 46 58 99 69
119 42 76 47 84 52 89 3 3 12 19 21 35 8 17 42 75 74 130 32 55 72 125 88 155
17 30 61 106 99 169 37 62 68 116 68 118 0 3 29 54 65 113 36 59 65 112 65
118 0 6 3 12 8 14 4 2 18 23 31 48 13 25 46 82 72 126 27 45 49 87 49 93 0 6
4 11 9 11 5 0 11 8 15 18 3 9 14 31 23 47 88 146 146 247 201 345 14 25 53 93
88 153 35 59 64 112 64 117 0 6 5 10 10 10 6 0 10 5 10 11 0 5 36 71 80 145
44 74 80 138 80 144 0 5 5 10 10 10 6 0 10 5 10 11 0 5 24 51 54 102 30 51 63
109 75 130 12 20 30 54 42 75 12 20 43 74 70 118 27 45 49 87 49 93 0 6 4 11
9 11 5 0 11 8 14 18 4 9 18 37 33 62 14 25 48 83 76 130 27 47 56 96 64 110 9
14 18 33 21 43 3 9 9 17 14 17 5 0 9 4 9 10 0 8 19 43 124 220 15 25 29 53 33
63 3 9 9 17 14 17 5 0 9 5 9 11 0 6 26 55 58 108 32 53 61 105 66 115 6 18 8
18 21 -8 8 -15 37 -65 65 -111 27 -45 50 -88 50 -94 0 -6 5 -11 10 -11 6 0 10
-4 10 -10 0 -5 36 -70 80 -145 44 -75 80 -140 80 -145 0 -6 5 -10 10 -10 6 0
10 -4 10 -10 0 -5 32 -65 71 -132 102 -175 109 -188 137 -238 14 -25 42 -72
62 -105 20 -33 48 -80 62 -105 14 -25 35 -63 48 -85 12 -22 46 -81 76 -132 30
-51 54 -94 54 -97 0 -3 41 -72 90 -154 50 -83 90 -152 90 -154 0 -3 36 -65 80
-139 44 -74 80 -140 80 -146 0 -7 4 -13 9 -13 5 0 11 -8 14 -17 4 -10 18 -38
33 -63 105 -177 124 -212 124 -220 0 -6 4 -10 9 -10 5 0 11 -8 15 -17 3 -10
13 -32 23 -48 10 -17 39 -66 65 -110 25 -44 58 -100 73 -125 14 -25 28 -53 32
-62 3 -10 9 -18 14 -18 5 0 9 -5 9 -11 0 -6 29 -60 65 -119 36 -59 65 -110 65
-113 0 -3 40 -73 90 -155 49 -83 90 -152 90 -155 0 -3 36 -66 80 -141 44 -74
80 -140 80 -145 0 -6 5 -11 10 -11 6 0 10 -4 10 -10 0 -5 36 -70 80 -145 44
-75 80 -140 80 -145 0 -6 4 -10 9 -10 5 0 11 -8 15 -17 3 -10 13 -31 23 -48
10 -16 43 -73 73 -125 30 -52 63 -108 73 -125 10 -16 20 -38 23 -48 4 -9 10
-17 15 -17 5 0 9 -5 9 -11 0 -12 103 -189 110 -189 7 0 110 177 110 189 0 6 5
11 10 11 6 0 10 4 10 9 0 8 58 110 164 291 15 25 29 53 33 63 3 9 9 17 14 17
5 0 9 4 9 10 0 5 22 47 49 92 27 46 58 99 69 119 42 76 47 84 52 89 3 3 12 19
21 35 8 17 42 75 74 130 32 55 70 123 85 150 15 28 59 103 99 169 39 65 71
121 71 123 0 3 29 54 65 113 36 59 65 112 65 118 0 6 3 12 8 14 4 2 18 23 31
48 13 25 46 82 72 126 27 45 49 87 49 93 0 6 4 11 9 11 5 0 11 8 15 17 3 10
14 32 23 48 88 146 146 247 201 345 14 25 53 93 88 153 35 59 64 112 64 117 0
6 5 10 10 10 6 0 10 5 10 11 0 5 36 71 80 145 44 74 80 138 80 144 0 5 5 10
10 10 6 0 10 5 10 11 0 5 24 51 54 102 30 51 63 109 75 130 12 20 30 54 42 75
12 20 43 74 70 118 27 45 49 87 49 93 0 6 4 11 9 11 5 0 11 8 14 17 4 10 18
38 33 63 14 25 48 83 76 130 27 47 56 96 64 110 9 14 18 33 21 43 3 9 9 17 14
17 5 0 9 4 9 10 0 8 19 43 124 220 15 25 29 53 33 63 3 9 9 17 14 17 5 0 9 5
9 11 0 6 27 56 60 111 33 54 60 103 60 108 0 5 -27 54 -60 108 -33 55 -60 105
-60 111 0 6 -4 11 -10 11 -5 0 -10 4 -10 10 0 5 -36 70 -80 145 -44 75 -80
140 -80 145 0 6 -4 10 -10 10 -5 0 -10 4 -10 10 0 5 -32 65 -71 132 -102 175
-109 188 -137 238 -14 25 -42 72 -62 105 -20 33 -48 80 -62 105 -14 25 -35 63
-48 85 -12 22 -46 81 -76 132 -30 51 -54 94 -54 97 0 3 -41 72 -90 154 -50 83
-90 152 -90 154 0 3 -36 65 -80 139 -44 74 -80 140 -80 147 0 6 -4 12 -9 12
-5 0 -11 8 -14 18 -4 9 -18 37 -33 62 -105 177 -124 212 -124 220 0 6 -4 10
-9 10 -5 0 -11 8 -15 18 -3 9 -13 31 -23 47 -10 17 -39 66 -65 110 -25 44 -58
100 -73 125 -14 25 -28 53 -32 63 -3 9 -9 17 -14 17 -5 0 -9 5 -9 11 0 6 -29
60 -65 119 -36 59 -65 110 -65 113 0 3 -41 73 -90 155 -50 83 -90 152 -90 155
0 3 -36 66 -80 141 -44 74 -80 140 -80 145 0 6 -4 11 -10 11 -5 0 -10 4 -10
10 0 5 -36 70 -80 145 -44 75 -80 140 -80 145 0 6 -4 10 -9 10 -5 0 -11 8 -15
18 -3 9 -13 31 -23 47 -10 17 -43 73 -73 125 -30 52 -63 109 -73 125 -10 17
-20 38 -23 48 -4 9 -10 17 -15 17 -5 0 -9 5 -9 11 0 13 -100 181 -112 190 -5
3 18 51 51 106 34 56 61 106 61 112 0 6 5 11 10 11 6 0 10 4 10 9 0 8 58 110
164 291 15 25 29 53 33 63 3 9 9 17 14 17 5 0 9 4 9 10 0 5 22 47 49 92 27 46
58 99 69 119 42 76 47 84 52 89 3 3 12 19 21 35 8 17 42 75 74 130 32 55 70
123 85 150 15 28 59 103 99 169 39 65 71 121 71 123 0 3 29 54 65 113 36 59
65 112 65 118 0 6 3 12 8 14 4 2 18 23 31 48 13 25 46 82 72 126 27 45 49 87
49 93 0 6 4 11 9 11 5 0 11 8 15 18 3 9 14 31 23 47 88 146 146 247 201 345
14 25 53 93 88 153 35 59 64 112 64 117 0 6 5 10 10 10 6 0 10 5 10 11 0 5 36
71 80 145 44 74 80 138 80 144 0 5 5 10 10 10 6 0 10 5 10 11 0 5 24 51 54
102 30 51 63 109 75 130 12 20 30 54 42 75 12 20 43 74 70 118 27 45 49 87 49
93 0 6 4 11 9 11 5 0 11 8 14 18 4 9 18 37 33 62 14 25 48 83 76 130 27 47 56
96 64 110 9 14 18 33 21 43 3 9 9 17 14 17 5 0 9 4 9 10 0 8 19 43 124 220 15
25 29 53 33 63 3 9 9 17 14 17 5 0 9 5 9 11 0 6 27 56 60 111 33 54 60 101 60
103 0 3 -1169 5 -2597 5 l-2598 0 -53 -90 c-28 -48 -52 -93 -52 -99 0 -6 -4
-11 -10 -11 -5 0 -10 -4 -10 -9 0 -8 -58 -110 -164 -291 -15 -25 -29 -53 -33
-62 -3 -10 -9 -18 -14 -18 -5 0 -9 -4 -9 -10 0 -5 -22 -47 -49 -92 -27 -46
-58 -99 -69 -119 -42 -76 -47 -84 -52 -89 -3 -3 -12 -19 -21 -35 -8 -17 -42
-75 -74 -130 -32 -55 -72 -125 -88 -155 -17 -30 -61 -106 -99 -169 -37 -62
-68 -116 -68 -118 0 -3 -29 -54 -65 -113 -36 -59 -65 -112 -65 -118 0 -6 -3
-12 -7 -14 -5 -1 -19 -23 -32 -48 -13 -25 -46 -82 -72 -126 -27 -45 -49 -87
-49 -93 0 -6 -4 -11 -9 -11 -5 0 -11 -8 -15 -17 -3 -10 -14 -31 -23 -48 -88
-146 -146 -247 -201 -345 -14 -25 -53 -93 -88 -153 -35 -59 -64 -112 -64 -117
0 -6 -4 -10 -10 -10 -5 0 -10 -5 -10 -11 0 -5 -36 -71 -80 -145 -44 -74 -80
-138 -80 -144 0 -5 -4 -10 -10 -10 -5 0 -10 -5 -10 -11 0 -5 -24 -51 -54 -102
-30 -51 -63 -109 -75 -129 -12 -21 -30 -55 -42 -75 -12 -21 -43 -75 -70 -119
-27 -45 -49 -87 -49 -93 0 -6 -4 -11 -9 -11 -5 0 -11 -8 -14 -17 -4 -10 -18
-38 -33 -63 -14 -25 -48 -83 -76 -130 -27 -47 -56 -96 -64 -110 -9 -14 -18
-33 -21 -42 -3 -10 -9 -18 -14 -18 -5 0 -9 -4 -9 -10 0 -8 -19 -43 -124 -220
-15 -25 -29 -53 -33 -62 -3 -10 -9 -18 -14 -18 -5 0 -9 -5 -9 -11 0 -6 -27
-56 -60 -111 -33 -54 -60 -103 -60 -108 0 -26 -20 -1 -78 94 -34 57 -62 109
-62 115 0 6 -4 11 -10 11 -5 0 -10 4 -10 10 0 5 -36 70 -80 145 -44 75 -80
140 -80 145 0 6 -4 10 -10 10 -5 0 -10 4 -10 10 0 5 -32 65 -71 132 -102 175
-109 188 -137 238 -14 25 -42 72 -62 105 -20 33 -48 80 -62 105 -14 25 -35 63
-48 85 -12 22 -46 81 -76 132 -30 51 -54 94 -54 97 0 3 -32 58 -71 123 -40 65
-84 141 -99 168 -15 28 -51 91 -80 140 -29 50 -63 108 -74 130 -12 22 -23 42
-26 45 -5 5 -10 13 -52 89 -11 20 -42 73 -69 119 -27 45 -49 87 -49 92 0 6 -4
10 -9 10 -5 0 -11 8 -15 18 -3 9 -13 31 -23 47 -10 17 -39 66 -65 110 -25 44
-58 100 -73 125 -14 25 -28 53 -32 63 -3 9 -9 17 -14 17 -5 0 -9 5 -9 11 0 6
-29 60 -65 119 -36 59 -65 110 -65 113 0 3 -41 73 -90 156 -49 83 -90 153 -90
155 0 3 -36 65 -80 140 -44 74 -80 140 -80 145 0 6 -4 11 -10 11 -5 0 -10 4
-10 10 0 5 -36 70 -80 145 -44 75 -80 140 -80 145 0 6 -4 10 -9 10 -5 0 -11 8
-15 18 -3 9 -13 31 -23 47 -10 17 -43 73 -73 125 -30 52 -63 109 -73 125 -10
17 -20 38 -23 48 -4 9 -10 17 -15 17 -5 0 -9 5 -9 11 0 14 -100 181 -114 191
-6 4 -1178 8 -2603 8 l-2593 0 0 -4496z"/>
<path d="M15610 17985 c0 -2 27 -49 60 -103 33 -55 60 -105 60 -111 0 -6 5
-11 10 -11 6 0 10 -4 10 -10 0 -5 36 -70 80 -145 44 -75 80 -140 80 -145 0 -6
5 -10 10 -10 6 0 10 -4 10 -10 0 -5 32 -65 71 -132 102 -175 109 -188 137
-238 14 -25 42 -72 62 -105 20 -33 48 -80 62 -105 14 -25 35 -63 48 -85 12
-22 46 -81 76 -132 30 -51 54 -94 54 -97 0 -3 41 -72 90 -154 50 -83 90 -152
90 -154 0 -3 36 -65 80 -139 44 -74 80 -140 80 -146 0 -7 4 -13 9 -13 5 0 11
-8 14 -17 4 -10 18 -38 33 -63 105 -177 124 -212 124 -220 0 -6 4 -10 9 -10 5
0 11 -8 15 -17 3 -10 13 -32 23 -48 10 -17 39 -66 65 -110 25 -44 58 -100 73
-125 14 -25 28 -53 32 -62 3 -10 9 -18 14 -18 5 0 9 -5 9 -11 0 -6 29 -60 65
-119 36 -59 65 -110 65 -113 0 -3 41 -73 90 -155 50 -83 90 -152 90 -155 0 -3
36 -66 80 -141 44 -74 80 -140 80 -145 0 -6 5 -11 10 -11 6 0 10 -4 10 -10 0
-5 36 -70 80 -145 44 -75 80 -140 80 -145 0 -6 4 -10 9 -10 5 0 11 -8 15 -17
3 -10 13 -31 23 -48 10 -16 43 -73 73 -125 30 -52 63 -108 73 -125 10 -16 20
-38 23 -47 4 -10 10 -18 15 -18 5 0 9 -5 9 -11 0 -12 103 -189 110 -189 7 0
110 177 110 189 0 6 5 11 10 11 6 0 10 4 10 9 0 8 58 110 164 291 15 25 29 53
33 63 3 9 9 17 14 17 5 0 9 4 9 10 0 5 22 47 49 92 27 46 58 99 69 119 42 76
47 84 52 89 3 3 12 19 21 35 8 17 42 75 74 130 32 55 70 123 85 150 15 28 59
103 99 169 39 65 71 121 71 123 0 3 29 54 65 113 36 59 65 112 65 118 0 6 3
12 8 14 4 2 18 23 31 48 13 25 46 82 72 126 27 45 49 87 49 93 0 6 4 11 9 11
5 0 11 8 15 18 3 9 14 31 23 47 88 146 146 247 201 345 14 25 53 93 88 153 35
59 64 112 64 117 0 6 5 10 10 10 6 0 10 5 10 11 0 5 36 71 80 145 44 74 80
138 80 144 0 5 5 10 10 10 6 0 10 5 10 11 0 5 24 51 54 102 30 51 63 109 75
130 12 20 30 54 42 75 12 20 43 74 70 118 27 45 49 87 49 93 0 6 4 11 9 11 5
0 11 8 14 18 4 9 18 37 33 62 14 25 48 83 76 130 27 47 56 96 64 110 9 14 18
33 21 43 3 9 9 17 14 17 5 0 9 4 9 10 0 8 19 43 124 220 15 25 29 53 33 63 3
9 9 17 14 17 5 0 9 5 9 11 0 6 27 56 60 111 33 54 60 101 60 103 0 3 -1165 5
-2590 5 -1424 0 -2590 -2 -2590 -5z"/>
</g>
</svg>
